<svg xmlns="http://www.w3.org/2000/svg" viewBox="0 0 380 480" font-family="monospace" font-size="12">
  <defs>
    <marker id="c" markerWidth="8" markerHeight="8" refX="7" refY="4" orient="auto"><path d="M0,1 L7,4 L0,7" fill="none" stroke="#475569" stroke-width="1.2"/></marker>
  </defs>

  <!-- Title -->
  <text x="190" y="20" text-anchor="middle" fill="#94a3b8" font-size="10">CURRENT STATE</text>

  <!-- Query -->
  <g data-click="qu" style="cursor:pointer">
    <rect x="100" y="35" width="180" height="36" rx="6" fill="#e0f2fe" stroke="#0ea5e9"/>
    <text x="190" y="57" text-anchor="middle" fill="#0c4a6e" font-size="11" font-weight="bold">Query Processing</text>
  </g>

  <line x1="190" y1="71" x2="190" y2="88" stroke="#475569" stroke-width="1.5" marker-end="url(#c)"/>

  <!-- L0: retrieval -->
  <g data-click="l0" style="cursor:pointer">
    <rect x="10" y="91" width="360" height="75" rx="8" fill="#f8fafc" stroke="#64748b"/>
    <text x="190" y="109" text-anchor="middle" fill="#1e293b" font-size="11" font-weight="bold">L0: Retrieval</text>
  </g>

  <g data-click="ii" style="cursor:pointer">
    <rect x="25" y="118" width="160" height="36" rx="5" fill="#e7f5ff" stroke="#339af0"/>
    <text x="105" y="140" text-anchor="middle" fill="#1e293b" font-size="11">Inverted Index</text>
  </g>
  <g data-click="ces" style="cursor:pointer">
    <rect x="195" y="118" width="160" height="36" rx="5" fill="#f3f0ff" stroke="#7c3aed"/>
    <text x="275" y="140" text-anchor="middle" fill="#1e293b" font-size="11">CES</text>
  </g>

  <line x1="190" y1="166" x2="190" y2="183" stroke="#475569" stroke-width="1.5" marker-end="url(#c)"/>

  <!-- LLM Filtering -->
  <g data-click="llm_filtering" style="cursor:pointer">
    <rect x="10" y="186" width="360" height="50" rx="8" fill="#fef3c7" stroke="#f59e0b"/>
    <text x="190" y="207" text-anchor="middle" fill="#92400e" font-size="11" font-weight="bold">LLM Filtering</text>
    <text x="190" y="224" text-anchor="middle" fill="#92400e" font-size="9">offline blacklist + online CE scoring</text>
  </g>

  <line x1="190" y1="236" x2="190" y2="253" stroke="#475569" stroke-width="1.5" marker-end="url(#c)"/>

  <!-- Reranker -->
  <g data-click="l1_overview" style="cursor:pointer">
    <rect x="10" y="256" width="360" height="70" rx="8" fill="#f8fafc" stroke="#64748b"/>
    <text x="190" y="274" text-anchor="middle" fill="#1e293b" font-size="11" font-weight="bold">L1: Reranker</text>
  </g>

  <g data-click="stageA" style="cursor:pointer">
    <rect x="25" y="283" width="330" height="32" rx="6" fill="#e0f2fe" stroke="#0ea5e9"/>
    <text x="190" y="303" text-anchor="middle" fill="#0c4a6e" font-size="11" font-weight="bold">GBDT (LightGBM)</text>
  </g>

  <line x1="190" y1="326" x2="190" y2="343" stroke="#475569" stroke-width="1.5" marker-end="url(#c)"/>

  <!-- Post -->
  <g data-click="post" style="cursor:pointer">
    <rect x="10" y="346" width="360" height="50" rx="6" fill="#f8fafc" stroke="#64748b"/>
    <text x="190" y="367" text-anchor="middle" fill="#1e293b" font-size="11" font-weight="bold">Postprocessing</text>
    <text x="190" y="384" text-anchor="middle" fill="#64748b" font-size="9">merchandising rules</text>
  </g>

  <line x1="190" y1="396" x2="190" y2="413" stroke="#475569" stroke-width="1.5" marker-end="url(#c)"/>

  <!-- SERP -->
  <rect x="140" y="416" width="100" height="30" rx="5" fill="#dcfce7" stroke="#22c55e"/>
  <text x="190" y="435" text-anchor="middle" fill="#166534" font-size="11" font-weight="bold">SERP</text>
</svg>
