<svg viewBox="0 0 680 310" style="width:100%;max-width:680px;margin:16px 0" xmlns="http://www.w3.org/2000/svg" font-family="monospace" font-size="11">
  <!-- Timeline line -->
  <line x1="60" y1="30" x2="60" y2="230" stroke="#cbd5e1" stroke-width="2"/>

  <!-- t=0 -->
  <circle cx="60" cy="40" r="5" fill="#0ea5e9"/>
  <text x="80" y="44" fill="#0c4a6e" font-size="10" font-weight="bold">Query: "iPhone 15"</text>

  <!-- t=1 -->
  <circle cx="60" cy="75" r="4" fill="#64748b"/>
  <text x="80" y="79" fill="#64748b" font-size="10">Click: iPhone 15 Pro Max 256GB</text>

  <!-- t=2 -->
  <circle cx="60" cy="105" r="5" fill="#22c55e"/>
  <text x="80" y="109" fill="#166534" font-size="10">Purchase: iPhone 15 Pro Max 256GB</text>

  <!-- t=3 -->
  <circle cx="60" cy="145" r="5" fill="#0ea5e9"/>
  <text x="80" y="149" fill="#0c4a6e" font-size="10" font-weight="bold">Query: "iPhone 15 pro max case"</text>

  <!-- t=4 -->
  <circle cx="60" cy="175" r="5" fill="#22c55e"/>
  <text x="80" y="179" fill="#166534" font-size="10">Purchase: silicone case</text>

  <!-- t=5 -->
  <circle cx="60" cy="210" r="5" fill="#0ea5e9"/>
  <text x="80" y="214" fill="#0c4a6e" font-size="10" font-weight="bold">Query: "screen protector iPhone 15"</text>

  <!-- t=6 -->
  <circle cx="60" cy="240" r="5" fill="#22c55e"/>
  <text x="80" y="244" fill="#166534" font-size="10">Purchase: tempered glass protector</text>

  <!-- Bracket: complementary items -->
  <path d="M430,140 C445,140 445,175 445,175 C445,175 445,210 430,210" fill="none" stroke="#ec4899" stroke-width="1.5"/>
  <line x1="445" y1="175" x2="460" y2="175" stroke="#ec4899" stroke-width="1.5"/>
  <text x="465" y="170" fill="#9d174d" font-size="10" font-weight="bold">complementary</text>
  <text x="465" y="183" fill="#9d174d" font-size="10">for "iPhone 15"</text>

  <!-- Insight box -->
  <rect x="40" y="262" width="600" height="40" rx="5" fill="#fef3c7" stroke="#f59e0b" stroke-width="1.2"/>
  <text x="55" y="280" fill="#92400e" font-size="10" font-weight="bold">Insight: for query "iPhone 15" we should show cases and protectors immediately.</text>
  <text x="55" y="294" fill="#92400e" font-size="10">"case" ≠ "iPhone 15" neither lexically nor in embedding. Only behavioral signal.</text>
</svg>