<svg viewBox="0 0 700 380" style="width:100%;max-width:700px;margin:16px 0" xmlns="http://www.w3.org/2000/svg" font-family="monospace" font-size="11">
  <defs><marker id="l0o-arr" markerWidth="6" markerHeight="6" refX="5" refY="3" orient="auto"><path d="M0,0 L6,3 L0,6" fill="none" stroke="#64748b" stroke-width="1"/></marker></defs>

  <!-- Query -->
  <rect x="250" y="5" width="200" height="30" rx="5" fill="#e0f2fe" stroke="#0ea5e9" stroke-width="1.5"/>
  <text x="290" y="24" fill="#0c4a6e" font-size="11" font-weight="bold">Query: "running shoes"</text>

  <!-- Fan out -->
  <line x1="350" y1="35" x2="100" y2="65" stroke="#94a3b8" stroke-width="1" marker-end="url(#l0o-arr)"/>
  <line x1="350" y1="35" x2="250" y2="65" stroke="#94a3b8" stroke-width="1" marker-end="url(#l0o-arr)"/>
  <line x1="350" y1="35" x2="400" y2="65" stroke="#94a3b8" stroke-width="1" marker-end="url(#l0o-arr)"/>
  <line x1="350" y1="35" x2="540" y2="65" stroke="#94a3b8" stroke-width="1" marker-end="url(#l0o-arr)"/>
  <line x1="350" y1="35" x2="640" y2="65" stroke="#94a3b8" stroke-width="1" marker-end="url(#l0o-arr)"/>

  <!-- Source boxes -->
  <rect x="20" y="68" width="155" height="55" rx="5" fill="#e7f5ff" stroke="#339af0" stroke-width="1.2"/>
  <text x="35" y="86" fill="#1e293b" font-size="10" font-weight="bold">Keyword</text>
  <text x="35" y="100" fill="#475569" font-size="9">Nike Running Shoes</text>
  <text x="35" y="112" fill="#475569" font-size="9">ASICS Running Shoes</text>

  <rect x="185" y="68" width="155" height="55" rx="5" fill="#f3f0ff" stroke="#7c3aed" stroke-width="1.2"/>
  <text x="200" y="86" fill="#1e293b" font-size="10" font-weight="bold">Semantic</text>
  <text x="200" y="100" fill="#475569" font-size="9">Trail runners</text>
  <text x="200" y="112" fill="#475569" font-size="9">Marathon trainers</text>

  <rect x="350" y="68" width="155" height="55" rx="5" fill="#fff9db" stroke="#f59f00" stroke-width="1.2"/>
  <text x="365" y="86" fill="#1e293b" font-size="10" font-weight="bold">Personalized</text>
  <text x="365" y="100" fill="#475569" font-size="9">Nike Pegasus (fav brand)</text>
  <text x="365" y="112" fill="#475569" font-size="9">Nike Vomero (bought b4)</text>

  <rect x="515" y="68" width="90" height="55" rx="5" fill="#fff5f5" stroke="#e03131" stroke-width="1.2"/>
  <text x="525" y="86" fill="#1e293b" font-size="10" font-weight="bold">Compl.</text>
  <text x="525" y="100" fill="#475569" font-size="9">Running socks</text>
  <text x="525" y="112" fill="#475569" font-size="9">Insoles</text>

  <rect x="615" y="68" width="75" height="55" rx="5" fill="#e6fcf5" stroke="#2b8a3e" stroke-width="1.2"/>
  <text x="625" y="86" fill="#1e293b" font-size="10" font-weight="bold">Explor.</text>
  <text x="625" y="100" fill="#475569" font-size="9">On Cloud</text>
  <text x="625" y="112" fill="#475569" font-size="9">(new brand)</text>

  <!-- Merge arrows -->
  <line x1="100" y1="123" x2="300" y2="155" stroke="#64748b" stroke-width="1"/>
  <line x1="260" y1="123" x2="320" y2="155" stroke="#64748b" stroke-width="1"/>
  <line x1="425" y1="123" x2="380" y2="155" stroke="#64748b" stroke-width="1"/>
  <line x1="560" y1="123" x2="400" y2="155" stroke="#64748b" stroke-width="1"/>
  <line x1="650" y1="123" x2="420" y2="155" stroke="#64748b" stroke-width="1"/>

  <!-- Union box -->
  <rect x="230" y="155" width="240" height="34" rx="5" fill="#e0f2fe" stroke="#0ea5e9" stroke-width="1.5"/>
  <text x="280" y="176" fill="#0c4a6e" font-size="10" font-weight="bold">Merge + Deduplicate</text>

  <line x1="350" y1="189" x2="350" y2="210" stroke="#64748b" stroke-width="1.5" marker-end="url(#l0o-arr)"/>

  <!-- Combined result -->
  <rect x="100" y="213" width="500" height="80" rx="6" fill="#f8fafc" stroke="#64748b" stroke-width="1.2"/>
  <text x="115" y="233" fill="#1e293b" font-size="10" font-weight="bold">Combined candidate pool (~800-1200 products):</text>
  <text x="115" y="252" fill="#339af0" font-size="9">Nike Running Shoes, ASICS Running Shoes</text>
  <text x="115" y="265" fill="#7c3aed" font-size="9">+ trail runners, marathon trainers</text>
  <text x="115" y="278" fill="#d97706" font-size="9">+ Nike Pegasus, Nike Vomero (personal picks)</text>
  <text x="420" y="252" fill="#e03131" font-size="9">+ running socks, insoles</text>
  <text x="420" y="265" fill="#2b8a3e" font-size="9">+ On Cloud (new brand)</text>

  <line x1="350" y1="293" x2="350" y2="313" stroke="#64748b" stroke-width="1.5" marker-end="url(#l0o-arr)"/>

  <!-- Reranker -->
  <rect x="230" y="316" width="240" height="34" rx="5" fill="#ede9fe" stroke="#6366f1" stroke-width="1.5"/>
  <text x="280" y="337" fill="#4338ca" font-size="10" font-weight="bold">Reranker → final order</text>

  <!-- Annotation -->
  <text x="480" y="337" fill="#64748b" font-size="9" font-style="italic">best order for this user</text>
</svg>