<svg xmlns="http://www.w3.org/2000/svg" viewBox="0 0 380 680" font-family="monospace" font-size="12">
  <defs>
    <marker id="a" markerWidth="8" markerHeight="8" refX="7" refY="4" orient="auto"><path d="M0,1 L7,4 L0,7" fill="none" stroke="#475569" stroke-width="1.2"/></marker>
  </defs>

  <!-- Title -->
  <text x="190" y="20" text-anchor="middle" fill="#94a3b8" font-size="10">CURRENT STATE — SERVING</text>

  <!-- Prefix input -->
  <rect x="110" y="35" width="160" height="36" rx="6" fill="#e0f2fe" stroke="#0ea5e9"/>
  <text x="190" y="57" text-anchor="middle" fill="#0c4a6e" font-size="11" font-weight="bold">/v1/autocomplete/&lt;prefix&gt;</text>

  <line x1="190" y1="71" x2="190" y2="91" stroke="#475569" stroke-width="1.5" marker-end="url(#a)"/>

  <!-- Cache check -->
  <g data-click="caching" style="cursor:pointer">
    <rect x="100" y="94" width="180" height="32" rx="5" fill="#f8fafc" stroke="#94a3b8"/>
    <text x="190" y="114" text-anchor="middle" fill="#64748b" font-size="10">Redis cache check</text>
  </g>

  <line x1="190" y1="126" x2="190" y2="146" stroke="#475569" stroke-width="1.5" marker-end="url(#a)"/>

  <!-- Query Service -->
  <g data-click="spelling" style="cursor:pointer">
    <rect x="10" y="149" width="360" height="80" rx="8" fill="#f8fafc" stroke="#64748b"/>
    <text x="190" y="169" text-anchor="middle" fill="#1e293b" font-size="11" font-weight="bold">Query Service (Rust/C++ gRPC)</text>
    <text x="190" y="189" text-anchor="middle" fill="#64748b" font-size="9">GetSpellingCorrections → first/second pass</text>
    <text x="190" y="205" text-anchor="middle" fill="#64748b" font-size="9">DAWG/Keyvi fuzzy + LM scoring</text>
  </g>

  <line x1="190" y1="229" x2="190" y2="249" stroke="#475569" stroke-width="1.5" marker-end="url(#a)"/>

  <!-- KeySets -->
  <g data-click="keysets" style="cursor:pointer">
    <rect x="10" y="252" width="360" height="60" rx="8" fill="#f8fafc" stroke="#64748b"/>
    <text x="190" y="277" text-anchor="middle" fill="#1e293b" font-size="11" font-weight="bold">GetKeysetsAndBoosts</text>
    <text x="190" y="297" text-anchor="middle" fill="#64748b" font-size="9">corrections → synonym expansion → KeySet tree + boost weights</text>
  </g>

  <line x1="190" y1="312" x2="190" y2="332" stroke="#475569" stroke-width="1.5" marker-end="url(#a)"/>

  <!-- Parallel retrieval -->
  <g data-click="query_flow" style="cursor:pointer">
    <rect x="10" y="335" width="360" height="155" rx="8" fill="#f8fafc" stroke="#64748b"/>
    <text x="190" y="355" text-anchor="middle" fill="#1e293b" font-size="12" font-weight="bold">Parallel Retrieval (per section)</text>
  </g>

  <g data-click="query_flow" style="cursor:pointer">
    <rect x="25" y="365" width="155" height="28" rx="5" fill="#e7f5ff" stroke="#339af0"/>
    <text x="102" y="383" text-anchor="middle" fill="#1e293b" font-size="10">Inverted Index (SABR)</text>
  </g>
  <g data-click="ces_ac" style="cursor:pointer">
    <rect x="195" y="365" width="155" height="28" rx="5" fill="#f3f0ff" stroke="#7c3aed"/>
    <text x="272" y="383" text-anchor="middle" fill="#1e293b" font-size="10">CES (semantic)</text>
  </g>
  <g data-click="ss_personalization" style="cursor:pointer">
    <rect x="25" y="400" width="155" height="28" rx="5" fill="#fff9db" stroke="#f59f00"/>
    <text x="102" y="418" text-anchor="middle" fill="#1e293b" font-size="10">Personalization boost</text>
  </g>
  <g data-click="query_flow" style="cursor:pointer">
    <rect x="195" y="400" width="155" height="28" rx="5" fill="#e6fcf5" stroke="#2b8a3e"/>
    <text x="272" y="418" text-anchor="middle" fill="#1e293b" font-size="10">Query-items (CTR)</text>
  </g>
  <g data-click="query_flow" style="cursor:pointer">
    <rect x="25" y="435" width="155" height="28" rx="5" fill="#f8fafc" stroke="#94a3b8"/>
    <text x="102" y="453" text-anchor="middle" fill="#1e293b" font-size="10">Searchandizing rules</text>
  </g>
  <g data-click="query_flow" style="cursor:pointer">
    <rect x="195" y="435" width="155" height="28" rx="5" fill="#fff5f5" stroke="#e03131"/>
    <text x="272" y="453" text-anchor="middle" fill="#1e293b" font-size="10">Reranker (optional)</text>
  </g>

  <text x="190" y="480" text-anchor="middle" fill="#64748b" font-size="9">second-pass if first-pass insufficient</text>

  <line x1="190" y1="490" x2="190" y2="510" stroke="#475569" stroke-width="1.5" marker-end="url(#a)"/>

  <!-- Multi-section merge -->
  <g data-click="query_flow" style="cursor:pointer">
    <rect x="60" y="513" width="260" height="50" rx="6" fill="#f8fafc" stroke="#64748b"/>
    <text x="190" y="535" text-anchor="middle" fill="#1e293b" font-size="11" font-weight="bold">Multi-section Merge</text>
    <text x="190" y="552" text-anchor="middle" fill="#64748b" font-size="9">round-robin allocation across sections</text>
  </g>

  <line x1="190" y1="563" x2="190" y2="583" stroke="#475569" stroke-width="1.5" marker-end="url(#a)"/>

  <!-- Response -->
  <rect x="60" y="586" width="260" height="50" rx="6" fill="#e0f2fe" stroke="#0ea5e9"/>
  <text x="190" y="607" text-anchor="middle" fill="#0c4a6e" font-size="11" font-weight="bold">Response</text>
  <text x="190" y="624" text-anchor="middle" fill="#64748b" font-size="9">metadata enrichment + sponsored slotting</text>
</svg>
